<svg id="Layer_2" data-name="Layer 2" xmlns="http://www.w3.org/2000/svg" xmlns:xlink="http://www.w3.org/1999/xlink" viewBox="0 0 400 300" data-imageid="order-confirmed-isometric-eb52d" imageName="Order Confirmed" class="illustrations_image" style="width: 173px;"><defs><linearGradient id="linear-gradient" x1="159.39" y1="225.23" x2="126.89" y2="248.11" gradientUnits="userSpaceOnUse"><stop offset="0" stop-color="#5b1d5c"/><stop offset="1" stop-color="#f7ba1b"/></linearGradient><linearGradient id="linear-gradient-2" x1="249.75" y1="238.68" x2="217.26" y2="261.56" xlink:href="#linear-gradient"/><linearGradient id="linear-gradient-3" x1="222" y1="255.16" x2="189.51" y2="278.04" xlink:href="#linear-gradient"/><linearGradient id="linear-gradient-4" x1="94.31" y1="191.85" x2="70.81" y2="208.4" xlink:href="#linear-gradient"/><linearGradient id="linear-gradient-5" x1="241.57" y1="191.18" x2="224.5" y2="216.43" xlink:href="#linear-gradient"/></defs><title>pp</title><path d="M200,287.47l152-89.83c4.84-2.72,9-7.18,4.27-10.1L203.76,99.61c-2.29-1.42-5.76-2.35-8.09-1L36.11,191.22c-4.84,2.81-5.71,10.66-.87,13.47L180,287.33A20.21,20.21,0,0,0,200,287.47Z" fill="#fdc018"/><path d="M148.62,223.44c-11.07,6.45-22.46,12.2-33.56,18.6l20.82,11.49,32.83-20.47Z" opacity="0.32" fill="url(#linear-gradient)"/><path d="M239,236.9c-11.07,6.45-22.46,12.2-33.56,18.6L226.25,267l32.83-20.47Z" opacity="0.32" fill="url(#linear-gradient-2)"/><path d="M211.23,253.37c-11.07,6.45-22.46,12.2-33.56,18.6l20.82,11.49L231.32,263Z" opacity="0.32" fill="url(#linear-gradient-3)"/><path d="M86.52,190.56c-8,4.66-16.24,8.82-24.27,13.45l15.05,8.31,23.74-14.8Z" opacity="0.32" fill="url(#linear-gradient-4)"/><polyline points="288.39 206.04 245.4 234.49 182.94 193.79 221.55 169.82" opacity="0.32" fill="url(#linear-gradient-5)"/><path d="M227.08,12.35C241,21.06,276,41.3,287.9,48.62c2.7,1.66,3.11,4.13,3.16,7.3L291,204a4.72,4.72,0,0,1-6.08.93l-58.71-33.18c-2.92-1.72-5.22-3.49-5.22-6.88L221.54,15C221.54,11.78,224.32,10.62,227.08,12.35Z" fill="#68e1fd" class="target-color"/><path d="M221.66,14l19.09,11v4.12a2,2,0,0,0,1,1.71l14.77,8.53a1.3,1.3,0,0,0,2-1.13v-3L286.2,51.48a1.76,1.76,0,0,1,.87,1.52V201.07a1.2,1.2,0,0,1-1.8,1L221,164.87a6.37,6.37,0,0,0,2.83,5.91c3.33,2.12,61.84,35.23,61.84,35.23s4.63,2.09,6-3.43v-149a6.09,6.09,0,0,0-2.51-4.94C286.5,46.73,226.81,12,226.81,12S222.61,10.09,221.66,14Z" fill="#124577"/><path d="M174.51,91.46a52.34,52.34,0,0,0,1.6-5.05c.2-1.21-1-5.81-.16-6.07s1.89,2.86,1.89,2.86,2.5-5.64,3.18-5.91,2.71-.45,3.2.06,1.84,3.8,1.24,4.92A64.16,64.16,0,0,1,181.25,88c-.22.17-2.85,5.83-3.2,6S174.77,92.73,174.51,91.46Z" fill="#ffc9b5"/><path d="M147.08,109.72s13.74-5.43,16.13-7.4,11-12.12,11-12.12,5,1.83,4.94,4.34c0,0-7,11.69-10.25,14.82s-15.11,11-17.71,10.82S147.08,109.72,147.08,109.72Z" fill="#688c03"/><path d="M155.85,220.92s3.28-2.8,7-1.72,2.92,3.84.6,5.57-11.25,7.74-14,7.68-3.35-2.27-3.41-3.79a70.16,70.16,0,0,1,.81-7" fill="#2c1d1a"/><path d="M153.81,220.72a.7.7,0,0,0,.92.57,26.85,26.85,0,0,0,2.93-1.12s3.17,0,1.24,3.17-8.58,4.1-10.63,2.92-.68-4.54-.68-4.54" fill="#2c1d1a"/><path d="M163.58,227.11s3.28-2.8,7-1.72,2.92,3.84.6,5.57-11.25,7.74-14,7.68-3.35-2.27-3.41-3.79a70.16,70.16,0,0,1,.81-7" fill="#2c1d1a"/><path d="M161.53,226.91a.7.7,0,0,0,.92.57,26.85,26.85,0,0,0,2.93-1.12s3.17,0,1.24,3.17-8.58,4.1-10.63,2.92-.68-4.54-.68-4.54" fill="#ffc9b5"/><path d="M165,140.65c1.07,2.42,1.65,37.07,1.24,46s-4.68,40.29-4.68,40.29-2.43,3.69-6.53,3.43-3.3-3.56-3.3-3.56-5.24,2.43-7.53-2.91c-.85-2-4.84-57.21-4.84-63.5a43.87,43.87,0,0,1,6-21.36" fill="#c13d3d"/><path d="M151.7,226.78s-2.49-70-2.17-72.07-.68,15.35-.61,20.11C149,178.22,151,222,151.7,226.78Z" fill="#6d5854"/><path d="M165,140.65s3.62-24.79-1.53-29.47-19.46-8-22.13-5.67,1.34,28.62,4,33.5S163.07,142.55,165,140.65Z" fill="#8ccc00"/><path d="M158.46,92.94c.12.35,2.66,10-1.77,11.4s-5.32-3.89-5.76-4.19-1.83-.77-1.76-1.84,1.75-1.09,1.75-1.09.65-2.8,2.64-4S158.46,92.94,158.46,92.94Z" fill="#ffc9b5"/><path d="M154.32,95.66s3.7.06,5.3-1.52a3.11,3.11,0,0,0-.26-4.57s1.47-2.93-1.29-3.64c0,0-.25-2.69-5.75-1.46s-10.52,5.12-10.59,10.15-.44,5.61-2.22,6.76-1.29,5.56,3.47,5.74,11.25-.24,11.86-2.59-3-2.6-3.45-5A3.43,3.43,0,0,1,154.32,95.66Z" fill="#2c1d1a"/><path d="M172.13,137.08s3.81,4.06,4.91,4.5a34.11,34.11,0,0,1,4.84,2.71,8.51,8.51,0,0,0-1.35,1.54.52.52,0,0,0,0,.06c-.49-.35-.83-.61-.82-.43,0,.57,3.75,5.45,4.32,6.19s-1,3.16-1,3.16c-2.42.81-5.21-1.64-7-3.3s-2.62-5.5-3.24-6-5.73-3.87-6.09-4.92S172.13,137.08,172.13,137.08Z" fill="#ffc9b5"/><path d="M164.63,112.95c1,2.21,1,4.63,1.42,7,.33,1.69.67,3.46,1.06,5.17a16.31,16.31,0,0,0,1.62,5c1.4,2.33,3.22,4.35,4.81,6.54a4,4,0,0,1,.93,1.68c.15,1.53-1.78,5.89-7.13,5.35a66.3,66.3,0,0,1-7.56-7.16c-3-3.53-5.84-15.47-5.55-19.44.2-2.7,1.67-5.72,4.23-6.9a4.48,4.48,0,0,1,5,1.13A6,6,0,0,1,164.63,112.95Z" fill="#8ccc00"/><path d="M164.32,141.07s-4.47-3.8-5.57-6.09-2.53-6.41-2.53-6.41,2.07,11.91,4.05,13.5A22.92,22.92,0,0,0,164.32,141.07Z" fill="#2c1d1a"/><path d="M79.41,172.44s-2.65,22.74,9.38,27.14,18.47-7,18.65-27.14" fill="#68e1fd" class="target-color"/><path d="M79.41,172.44s-2.65,22.74,9.38,27.14,18.47-7,18.65-27.14" fill="#2e2e75" opacity="0.33"/><ellipse cx="93.42" cy="172.44" rx="14.02" ry="8.1" fill="#f2696a"/><path d="M97,154.41s-5.5-7.94-3.1-13.44c0,0,2-3.53,4.78-4.09,0,0-.28,7.53,2.52,6.57s0-7.88,0-7.88,2.94-4,6.17-3.86,0,7,2.24,5.9.14-7,2.66-7.73a53,53,0,0,1,7-1.12s2.38,6.87,0,7.85-5.89,1.32-4.21,2.83,6.45-.23,6.45-.23.3,3.87-1.32,5.54-11.16-2-9.47,1.3,8,1.66,8,1.66-3.22,4.61-7,6.71S97,154.41,97,154.41Z" fill="#8ccc00"/><path d="M98.3,174.29s-4-3.92-3.19-7.3c0,0,.75-2.21,2.28-2.83,0,0,.64,4.31,2.13,3.46s-.84-4.47-.84-4.47,1.25-2.58,3.09-2.85.75,4,1.9,3.11-.67-4,.69-4.68a30.6,30.6,0,0,1,3.86-1.38s2.09,3.65.84,4.46-3.2,1.38-2.09,2.06,3.64-.82,3.64-.82.58,2.16-.16,3.28-6.55,0-5.24,1.75,4.71.09,4.71.09a14.92,14.92,0,0,1-3.26,4.56C104.74,174.32,98.3,174.29,98.3,174.29Z" fill="#8ccc00"/><path d="M83.69,165.81s-9.66.37-13-4.6c0,0-1.91-3.57-.88-6.23,0,0,6.2,4.28,6.9,1.4s-6.65-4.23-6.65-4.23-1.78-4.63.06-7.28,5.94,3.78,6.18,1.28-5.86-3.9-5.09-6.4A53,53,0,0,1,74,133.22s7.08,1.68,6.62,4.22-2.05,5.67.13,5.07S84,137,84,137s3.42,1.83,4,4.09-7.7,8.32-4,8.69,5.69-5.85,5.69-5.85,2.15,5.2,1.89,9.52S83.69,165.81,83.69,165.81Z" fill="#8ccc00"/><path d="M117.21,131.8q-1.53,1.3-3.09,2.64c.11-1.09.23-2.18.41-3.27.09-.57-.79-.82-.88-.24q-.35,2.18-.53,4.38c-2.71,2.37-5.39,4.86-7.89,7.49a32.57,32.57,0,0,1-.17-5.58c0-.59-.88-.58-.91,0a33.5,33.5,0,0,0,.27,6.44,63.12,63.12,0,0,0-4.49,5.42,18.08,18.08,0,0,1-3.13-7.29c-.11-.58-1-.33-.88.24a18.7,18.7,0,0,0,3.37,7.73.46.46,0,0,0,.09.08c-4,5.69-6.77,12.07-7,19.46,0,.59.89.59.91,0,.23-7.12,2.87-13.28,6.72-18.79a35.19,35.19,0,0,0,11.3,1.1c.58,0,.59-1,0-.91a34.48,34.48,0,0,1-10.74-1,66.19,66.19,0,0,1,6.35-7.38l.08,0c2.13.19,4.26.38,6.4.45a7.8,7.8,0,0,0,4-.46c.52-.26.06-1.05-.46-.79-1.47.74-3.53.35-5.11.26-1.35-.08-2.7-.19-4.05-.31,3.25-3.22,6.74-6.22,10.11-9.07C118.31,132.06,117.66,131.42,117.21,131.8Z" fill="#06577a"/><path d="M88.94,149.56a.46.46,0,0,0-.88-.24,16.16,16.16,0,0,1-5.86,8.42q-1.55-4.3-2.84-8.7a27.26,27.26,0,0,0,5.35-7.56c.25-.53-.53-1-.79-.46a26.55,26.55,0,0,1-4.86,7c-1-3.36-1.79-6.75-2.5-10.17-.12-.57-1-.33-.88.24q1.45,7,3.59,13.87a21.4,21.4,0,0,1-5-1.63c-.53-.25-1,.54-.46.79a22.39,22.39,0,0,0,5.76,1.83h0c1,3,2,6,3.2,8.9a22.06,22.06,0,0,1-7.94-1.75c-.53-.23-1,.56-.46.79a23.27,23.27,0,0,0,8.75,1.89q2.2,5.49,4.84,10.8c.26.53,1,.06.79-.46a142.41,142.41,0,0,1-6.25-14.48h0A17.16,17.16,0,0,0,88.94,149.56Z" fill="#06577a"/><path d="M105.46,161.36l-2.51,4.21a7.87,7.87,0,0,1-.8-1.32c-.25-.53-1-.07-.79.46a8.7,8.7,0,0,0,1.05,1.66l0,0L99.73,171a1.86,1.86,0,0,1-.56-1.09c-.07-.58-1-.58-.91,0a2.87,2.87,0,0,0,1,1.88l-3.4,5.71a.46.46,0,0,0,.79.46l4.49-7.53a6.82,6.82,0,0,0,2.22-.33c.56-.18.32-1.06-.24-.88a6.07,6.07,0,0,1-1.41.27l4.55-7.63A.46.46,0,0,0,105.46,161.36Z" fill="#06577a"/><ellipse cx="249.42" cy="111.89" rx="16.4" ry="23.67" transform="translate(-15.74 45.42) rotate(-10.09)" fill="#fff"/><path d="M257.73,103.82l-12.65,13-3.75-4c-1,1.1-1.28,1.38-2.35,2.42l6.34,7.39,14.52-16.3Z" fill="#124577"/><path d="M202.58,40.34V53.89a5.32,5.32,0,0,0,4,4.5c3.67.83,4.17-4,4.17-4v-10Z" fill="#dd842a"/><path d="M210.78,44.47V58a5.32,5.32,0,0,0,4,4.5c3.67.83,4.17-4,4.17-4v-10Z" fill="#c13d3d"/><path d="M219.09,50.58V64.13a5.32,5.32,0,0,0,4,4.5c3.67.83,4.17-4,4.17-4v-10Z" fill="#dd842a"/><path d="M227.29,54.71V68.26a5.32,5.32,0,0,0,4,4.5c3.67.83,4.17-4,4.17-4v-10Z" fill="#c13d3d"/><path d="M235.49,59.65V73.2a5.32,5.32,0,0,0,4,4.5c3.67.83,4.17-4,4.17-4v-10Z" fill="#dd842a"/><path d="M243.69,63.79V77.34a5.32,5.32,0,0,0,4,4.5c3.67.83,4.17-4,4.17-4v-10Z" fill="#c13d3d"/><path d="M251.76,69.33V82.88a5.32,5.32,0,0,0,4,4.5c3.67.83,4.17-4,4.17-4v-10Z" fill="#dd842a"/><path d="M221.66,14l-19.15,26.3s64.43,39.26,65.33,39S286.2,51.48,286.2,51.48Z" fill="#8ccc00"/><polyline points="251.76 70.01 271.23 42.56 278.74 47.15 259.96 74.86" fill="#f29d40"/><polyline points="243.69 65.2 262.8 37.77 271.23 42.56 251.76 70.01" fill="#e04f4f"/><polyline points="235.49 60.38 255.35 33.18 262.8 37.77 243.7 65.27" fill="#f29d40"/><polyline points="227.29 55.39 246.57 28.24 255.35 33.18 235.49 60.31" fill="#e04f4f"/><polyline points="218.98 50.28 237.42 23.13 246.57 28.24 227.29 55.39" fill="#f29d40"/><polyline points="210.78 45.31 229.1 18.27 237.42 23.13 218.98 50.28" fill="#e04f4f"/><polyline points="202.58 40.52 222.05 12.85 229.56 17.44 210.78 45.15" fill="#f29d40"/><path d="M286.2,51.48s.87.18.87,1.67V79.28L265.78,91.44l3-18.62Z" fill="#aa2b2b"/><path d="M260,74.86V87a5.32,5.32,0,0,0,4,4.5c3.67.83,4.17-4,4.17-4l-.16-8Z" fill="#c13d3d"/><polyline points="268 79.52 286.2 51.48 278.74 47.15 259.96 74.86" fill="#e04f4f"/><path d="M238.85,154.77a7.09,7.09,0,0,1,.36,2.3c0,1.63-.56,2.51-1.32,2.6a2.17,2.17,0,0,1-1.28-.35,5.08,5.08,0,0,1-2.22-2.93,7.13,7.13,0,0,1-.35-2.3c0-1.63.56-2.52,1.32-2.59a2.17,2.17,0,0,1,1.29.34A5,5,0,0,1,238.85,154.77Zm-1.13,3.3a2.08,2.08,0,0,0,.46-1.6,4.63,4.63,0,0,0-.44-2.11,2.87,2.87,0,0,0-1.1-1.26.91.91,0,0,0-1.11,0,2.11,2.11,0,0,0-.45,1.6,4.6,4.6,0,0,0,.43,2.11,2.85,2.85,0,0,0,1.11,1.27.89.89,0,0,0,1.11,0" fill="#225870"/><path d="M243.35,144.79a7,7,0,0,1,.36,2.3c0,1.63-.56,2.51-1.32,2.6a2.21,2.21,0,0,1-1.29-.36,5.07,5.07,0,0,1-2.21-2.92,7,7,0,0,1-.35-2.3c0-1.63.56-2.52,1.32-2.59a2.14,2.14,0,0,1,1.28.34A5,5,0,0,1,243.35,144.79Zm-1.13,3.31a2.09,2.09,0,0,0,.46-1.61,4.57,4.57,0,0,0-.44-2.11,2.85,2.85,0,0,0-1.1-1.26.92.92,0,0,0-1.11,0,2.14,2.14,0,0,0-.45,1.6,4.72,4.72,0,0,0,.43,2.12,2.88,2.88,0,0,0,1.11,1.26.9.9,0,0,0,1.11,0" fill="#225870"/><path d="M247.27,149.52l1.51,4.14-1.14-.65-1.46-4-.53-.3,0,3.16-1-.59,0-7.31,2,1.15a3.43,3.43,0,0,1,1.66,3C248.3,149.12,247.93,149.64,247.27,149.52Zm-.63-1.51c.44.25.65.11.65-.45a1.25,1.25,0,0,0-.64-1.19l-1-.56v1.64l1,.56" fill="#225870"/><path d="M251.25,147.76a5.8,5.8,0,0,1,2.53,5.12c0,2.55-1.28,2.93-2.57,2.19l-1.72-1,0-7.31Zm.89,6.11c.38-.12.6-.66.61-1.59a4,4,0,0,0-.59-2.27,3.59,3.59,0,0,0-1.24-1.18l-.38-.22,0,4.8.38.22a1.52,1.52,0,0,0,1.24.24" fill="#225870"/><polygon points="258.12 151.71 258.11 152.96 255.74 151.59 255.73 153.13 257.63 154.22 257.63 155.48 255.72 154.38 255.71 156.4 258.17 157.81 258.16 159.06 254.69 157.06 254.72 149.76 258.12 151.71" fill="#225870"/><path d="M261.75,157.85l1.51,4.14-1.14-.65-1.46-4-.54-.31,0,3.16-1-.58,0-7.31,2,1.15a3.43,3.43,0,0,1,1.66,3C262.78,157.44,262.41,158,261.75,157.85Zm-.63-1.51c.44.25.65.11.65-.45a1.25,1.25,0,0,0-.64-1.19l-1-.57v1.64l1,.57" fill="#225870"/><path d="M231,148.63a4.86,4.86,0,0,1,2.26,3.52l-.92-.21a3.06,3.06,0,0,0-1.35-2.06.92.92,0,0,0-1.13,0,2.19,2.19,0,0,0-.44,1.6,4.74,4.74,0,0,0,.43,2.1,2.88,2.88,0,0,0,1.12,1.28c.66.38,1.11.22,1.36-.49l.92.84c-.27,1.26-1.09,1.59-2.29.9a4.88,4.88,0,0,1-1.84-2,6.69,6.69,0,0,1-.74-3.18,2.78,2.78,0,0,1,.77-2.31A1.59,1.59,0,0,1,231,148.63Z" fill="#225870"/><polygon points="245.18 156.84 245.15 164.15 244.13 163.56 244.15 159.05 243.08 162.28 242.34 161.86 241.31 157.42 241.29 161.93 240.27 161.34 240.31 154.04 241.45 154.7 242.72 159.99 244.04 156.18 245.18 156.84" fill="#225870"/><path d="M248.38,158.67a3.59,3.59,0,0,1,1.71,3.21c0,1.33-.61,1.87-1.73,1.23l-1.05-.61v2.87l-1-.58,0-7.31Zm-.06,3.17c.48.27.72.09.73-.56a1.47,1.47,0,0,0-.72-1.39l-1-.58v1.94l1,.58" fill="#225870"/><polygon points="252.05 160.78 252.02 166.84 254.34 168.18 254.34 169.43 250.99 167.5 251.03 160.2 252.05 160.78" fill="#225870"/><polygon points="258.69 164.6 258.68 165.85 256.3 164.49 256.3 166.02 258.2 167.12 258.19 168.37 256.29 167.27 256.28 169.29 258.73 170.7 258.73 171.95 255.26 169.96 255.29 162.65 258.69 164.6" fill="#225870"/><polygon points="263.58 167.41 263.58 168.67 262.06 167.79 262.03 173.85 261.01 173.26 261.04 167.21 259.52 166.34 259.53 165.08 263.58 167.41" fill="#225870"/><polygon points="267.86 169.87 267.85 171.13 265.48 169.76 265.47 171.29 267.38 172.39 267.37 173.64 265.46 172.55 265.45 174.56 267.91 175.97 267.9 177.22 264.43 175.23 264.47 167.92 267.86 169.87" fill="#225870"/><path d="M270.59,171.44a5.8,5.8,0,0,1,2.54,5.12c0,2.55-1.28,2.93-2.58,2.19l-1.72-1,0-7.31Zm.89,6.11c.38-.12.61-.65.62-1.59a4,4,0,0,0-.6-2.27,3.57,3.57,0,0,0-1.23-1.18l-.38-.22,0,4.8.38.22a1.5,1.5,0,0,0,1.24.24" fill="#225870"/><path d="M257.57,247.36V229.31l16.16-9v17.91Z" fill="#b24f28"/><path d="M257.57,229.31l-15.72-9s-.44,18.2,0,18.49,15.72,8.59,15.72,8.59Z" fill="#c96336"/><polygon points="241.84 220.28 257.57 210.67 273.73 220.28 257.57 229.31 241.84 220.28" fill="#db7d58"/><polygon points="247.83 216.62 264.2 225.6 264.2 235.03 268.91 232.65 268.91 222.97 252.54 213.74 247.83 216.62" fill="#fdedcb"/><path d="M215.73,185.09c-11,.76-10.47,18.63-11.22,26-.19,1.86,2.68,2.49,2.87.61.62-6.18.21-14.55,3.64-20,1.06-1.68,2.32-3.33,4.49-3.48a4.84,4.84,0,0,1,3.6,1.42c1,.87,1.48,4.33,1.65,5.36a43.91,43.91,0,0,1,.19,11.56c-.2,1.86,2.67,2.49,2.87.61C224.45,201.4,225.57,184.41,215.73,185.09Z" fill="#8ccc00"/><polyline points="232.25 197.09 235.57 202.63 242.22 204.01 237.24 221.18 223.12 212.04" fill="#dd842a"/><polygon points="198.19 215.92 232.25 197.09 231.15 225.06 205.12 227.55 198.19 215.92" fill="#c13d3d"/><polygon points="210.38 220.07 215.64 272.96 247.48 253.85 242.22 204.01 210.38 220.07" fill="#f29d40"/><polygon points="210.38 220.07 206.78 215.92 198.19 215.92 194.59 262.16 203.84 266.42 215.64 272.96 210.38 220.07" fill="#dd842a"/><path d="M229.95,193.94c-11.07.1-11.57,18-12.76,25.33-.3,1.85,2.53,2.64,2.83.78,1-6.13,1.08-14.51,4.83-19.73,1.54-2.14,4.23-3.94,6.89-2.54,2.38,1.26,2.41,4.07,2.64,6.42a43.91,43.91,0,0,1-.5,11.55c-.31,1.85,2.52,2.64,2.83.78C237.68,210.73,239.82,193.85,229.95,193.94Z" fill="#8ccc00"/></svg>